<svg xmlns="http://www.w3.org/2000/svg" xmlns:xlink="http://www.w3.org/1999/xlink" version="1.1" id="Layer_1" x="0px"
    y="0px" viewBox="0 0 850 350.9" style="enable-background:new 0 0 850 350.9;" xml:space="preserve">
    <style type="text/css">
        .st0 {
            fill: #F0323B;
        }

        .st1 {
            fill: #DB2129;
        }

        .st2 {
            fill: #CC1E26;
        }

        .st3 {
            fill: #FFFFFF;
        }

        .st4 {
            fill: #E6E6E6;
        }

        .st5 {
            fill: #D6D6D6;
        }
    </style>
    <g id="logo">
        <path
            d="M103,339.7c56.9,0,98.2-38.4,98.2-92.6s-41.3-92.6-98.2-92.6S4.4,192.9,4.4,247.1S46,339.7,103,339.7z M103,296.9   c-26,0-45.9-18.7-45.9-49.8s20-49.8,45.9-49.8s45.6,18.7,45.6,49.8S129,296.9,103,296.9L103,296.9z" />
        <path
            d="M304.4,245.5c0,3.6,3.4,5,4.8,5.4c0.4,0.1,0.8,0.2,1.3,0.2h43.1c0,0,6.6,0,6.7-5.6v-99.9c0,0,14,0,49-21.1   c17.1-10.3,25.8-20.6,30.3-28.5c2.9-5.1-2.5-8.8-7.8-6.2c-16.2,8.3-48.7,20.6-99.5,20.6s-83.2-12.3-99.5-20.6   c-5.2-2.7-10.7,1-7.8,6.2c4.5,7.9,13.2,18.2,30.3,28.5c35,21.1,49,21.1,49,21.1L304.4,245.5z" />
        <path
            d="M282,191.6c0.1,11.9-9.4,21.7-21.3,21.9c-11.9,0.1-21.7-9.4-21.9-21.3c-0.1-11.9,9.4-21.7,21.3-21.9c0.1,0,0.2,0,0.3,0   C272.2,170.2,281.9,179.7,282,191.6C282,191.6,282,191.6,282,191.6z" />
        <path
            d="M426,191.6c0.1,11.9-9.4,21.7-21.3,21.9c-11.9,0.1-21.7-9.4-21.9-21.3s9.4-21.7,21.3-21.9c0.1,0,0.2,0,0.3,0   C416.3,170.2,426,179.7,426,191.6z" />
        <path
            d="M270.5,331.1c0.1,4.8,4.1,8.7,8.9,8.6c4.7-0.1,8.5-3.9,8.6-8.6c0-4.9-1.6-8.7,4.4-8.7s4.4,3.7,4.4,8.7   c0.1,4.8,4,8.7,8.8,8.7c4.8-0.1,8.6-3.9,8.7-8.7c0-6.1,0-8.5,0-9.2c0-0.2,0-0.5-0.1-0.8c-0.1-0.7-0.2-1.4-0.4-2.2   c-0.6-2.2-1.6-4.3-2.9-6.1c-3.6-4.8-9.8-7.8-18.5-7.8c-4.6-0.1-9.1,0.9-13.1,3.1c-4-2.2-8.6-3.2-13.1-3.1c-8.7,0-14.9,3-18.5,7.8   c-1.4,1.8-2.4,3.9-2.9,6.1c-0.2,0.7-0.3,1.4-0.4,2.2c0,0.3-0.1,0.5-0.1,0.8c0,0,0-0.4,0,9.2c0.1,4.8,4.1,8.7,8.9,8.6   c4.7-0.1,8.6-3.9,8.6-8.6c0-4.9-1.6-8.7,4.4-8.7S270.5,326.1,270.5,331.1z" />
        <path
            d="M379.9,331.1c0.1,4.8,4.1,8.7,8.9,8.6c4.7-0.1,8.6-3.9,8.6-8.6c0-4.9-1.6-8.7,4.4-8.7s4.4,3.7,4.4,8.7   c0.1,4.8,4.1,8.7,8.9,8.6c4.7-0.1,8.6-3.9,8.6-8.6c0-6.1,0-8.5,0-9.2c0-0.2,0-0.5-0.1-0.8c-0.1-0.7-0.2-1.4-0.4-2.2   c-0.6-2.2-1.6-4.3-2.9-6.1c-3.6-4.8-9.8-7.8-18.5-7.8c-4.6-0.1-9.1,0.9-13.1,3.1c-4-2.2-8.6-3.2-13.1-3.1c-8.7,0-14.9,3-18.5,7.8   c-1.4,1.8-2.4,3.9-2.9,6.1c-0.2,0.7-0.3,1.4-0.4,2.2c0,0.3,0,0.5-0.1,0.8c0,0,0-0.4,0,9.2c0.1,4.8,4.1,8.6,9,8.5   c4.7-0.1,8.4-3.9,8.5-8.5c0-4.9-1.6-8.7,4.4-8.7S379.9,326.1,379.9,331.1z" />
        <path
            d="M605.1,158.4c-2.4,0-4.3,1.9-4.3,4.3v0v84c0,32.9-17.3,48.2-41.3,48.2c-23,0-36.3-13.3-36.3-43.2v-89   c0-2.4-1.9-4.3-4.3-4.3h-43.3c-2.4,0-4.3,1.9-4.3,4.3v96.7c0,55.1,31.6,80.4,76.5,80.4c22,0,41.9-8.3,55.6-23.9v16.9   c0,2.4,1.9,4.3,4.3,4.3h40.6c2.4,0,4.3-1.9,4.3-4.3V162.7c0-2.4-1.9-4.3-4.3-4.3c0,0,0,0,0,0H605.1z" />
        <path
            d="M760.4,339.7c54,0,85.1-23.7,85.1-57.2c0-70.9-108.9-41.1-108.9-71.9c0-9.4,10.1-16.7,33.5-16.7c16.6-0.1,33,3.7,47.8,11.2   c2.2,1.1,4.9,0.3,6.1-1.9c0,0,0-0.1,0.1-0.1l13.7-29.3c1-2,0.2-4.5-1.8-5.5c-17.2-8.8-42.7-13.8-65.9-13.8   c-52.6,0-83.5,24.1-83.5,58.2c0,71.9,108.9,41.8,108.9,71.2c0,10-9,16.4-33.2,16.4c-20.2,0-42.5-5.9-58.4-14.8   c-2.2-1.3-5-0.5-6.2,1.7c-0.1,0.1-0.1,0.2-0.2,0.3l-13.7,29.5c-0.9,1.9-0.2,4.3,1.6,5.4C702.8,332.3,731.8,339.7,760.4,339.7z" />
        <path class="st0"
            d="M274.3,101.3c-3.1-6.4-2.5-14.4-0.2-21.3s6.1-12.9,9.6-19.1c7.1-13,12.6-27.3,21.5-38.9s22.3-20.5,35.7-17.6   c9.6,2,17.4,9.6,24.6,16.9c13.9,14.3,27.7,29.4,36.5,48.1s12.2,41.7,4.8,61.2c-5.7,1.5-12.5,2.2-18.1,0c-0.7-6.3-1.2-10.8,1.7-16.2   c-0.9-4.1-3.7-7.1-6-10.3C347.5,117.1,309.9,118,274.3,101.3z" />
        <path class="st1"
            d="M406.7,130.7c1.6-4.2,2.7-8.5,3.3-12.9c-1.1-1.7-3-2.7-5-2.7c-1.9,0.1-4.2,1.1-5.6-0.4   c-0.5-0.6-0.8-1.5-1.4-2.1c-0.8-0.9-2.1-0.8-3.2-1.2c-2.2-0.9-3.2-3.6-4.4-5.7c-1.3-2.2-2.9-4.3-4.8-6.1c-1.6-1.6-3.3-3.2-4.9-4.8   c-0.8-0.8-1.6-1.7-2.3-2.7c-0.5-0.6-1.3-2.5-1.9-2.8c-2.1-1.1-0.9,4.4-0.6,5.6c0.6,2.7,1.6,5.3,3,7.7c0.6,1,1.2,1.9,1.8,2.8   c1.2-0.4,2.4-0.8,3.6-1.2c2.4,3.2,5.2,6.2,6,10.3c-3,5.4-2.4,9.9-1.7,16.2C394.2,132.9,401,132.2,406.7,130.7z" />
        <path class="st1"
            d="M375.6,92.2c-2.7-5.4-2.8-11.7-5.5-17.1c-2.9-5.4-6.6-10.3-11.2-14.5c-7-6.7-14.9-12.6-20.3-21.1   c-0.9-1.4-2-3.1-3.6-3.1c-1.7,0-2.8,2.2-3,4.1s0.3,3.9-0.1,5.8c-0.5,2.8-2.7,4.8-4.5,6.9c-3.2,3.5-2.6,6.5-3.3,11   c-0.8,5.5-5.6,9-10.3,11c-11.6,4.9-24.7,4.2-35.7-1.9c-0.4-0.2-0.8-0.4-1.1-0.6c-1.2,2.4-2.2,4.8-3.1,7.3c-0.4,1.1-0.7,2.2-0.9,3.3   c0.4,0.8,0.9,1.6,1.4,2.3c2.3,2.9,5.4,4.7,8.5,6.3c16.2,8.2,34.1,10.9,51.9,11.3c11.1,0.2,22.6-0.3,33,4.1c0.9,0.4,1.8,0.8,2.7,1.1   c2.6-0.7,5.2-1.5,7.8-2.3c0.8-1.8,1-3.7,0.6-5.6C378.5,97.5,376.9,94.9,375.6,92.2z" />
        <path class="st2"
            d="M364.3,69.1c-3.7-3.2-7.8-5.6-11.1-9.1c-1.7-1.8-3.6-4.1-5.9-3.7c-1.5,0.3-2.7,1.8-3.4,3.3s-0.9,3.3-1.5,5   c-2.2,6.2-7.9,9.7-13.3,12.7c-6.4,3.6-13.3,7.3-20.4,6.5c-2.4-0.3-4.8-1.1-7.2-1s-5,1.1-6.1,3.6c2.6,2.4,6.3,2.8,9.7,3.1   c12.3,1,24.5,2,36.8,1.2c6.4-0.4,13-1.3,19.2,0.5c2.3,0.6,4.9,1.5,6.7,0c1.5-1.3,1.6-3.5,2-5.4c0.4-1.8,1.6-3.6,1.7-5.3   C371.6,76.1,366.9,71.3,364.3,69.1z" />
        <path class="st3"
            d="M367.9,79.9c-10.6,3.5-14.8,3.2-25.8,4.1c-12.1,1-24.2,3.3-36.3,2.6s-24.7-5-32.8-15.1c-0.8-1-2.6-0.3-3.4,0.7   c-0.7,1.1-1.3,2.3-1.5,3.6l-4,14.6c-1.3,4.7-2.5,10.1-0.2,14.3c1.6,2.9,4.5,4.5,7.3,5.9c15.7,7.6,32.8,11.7,50.2,12.1   c18.8,0.3,37.5-3.9,55.9-8c2.5-0.6,5.4-1.4,6.5-4c0.9-2,1.1-4.3,0.5-6.5c-1.9-6.8-10.4-18-12.8-25.5   C371.5,78.7,369.8,79.2,367.9,79.9z" />
        <path class="st3"
            d="M380.1,129c-1.1,4.1-0.9,8.5,0.5,12.5c2,6.1,6.1,11.4,11.6,13.5c7,2.8,15.6-0.6,19.6-7.6s3.2-17-1.8-23.2   C402.4,114.8,384,115.4,380.1,129z" />
        <path class="st4"
            d="M371.5,78.7c0,0-1.7,0.5-3.6,1.2c-10.6,3.5-14.8,3.2-25.8,4.1c-0.2,0-0.4,0-0.6,0.1c-2.6,2.6-5,5.5-7.4,8.3   c-1.9,2.2-4,4.4-6.7,5.2c-3.2,0.9-6.6-0.3-9.9-0.8c-6.6-1-13.2,0.9-19.6,2.8s-12.9,4.1-19.5,3.6c-6-0.4-12.1-3.4-15.3-8.9   c-0.7,3.6-1,7.4,0.7,10.4c1.6,2.9,4.5,4.5,7.3,5.9c15.7,7.6,32.8,11.7,50.2,12.1c18.8,0.3,37.5-3.9,55.9-8c2.5-0.6,5.4-1.4,6.5-4   c0.9-2,1.1-4.3,0.5-6.5C382.4,97.4,374,86.2,371.5,78.7z" />
        <path class="st5"
            d="M384.3,104.2c-1.9-6.8-10.4-18-12.8-25.5c0,0-1.7,0.5-3.6,1.2c-4.1,1.4-8.3,2.4-12.5,3   c0.3,2.7,4.5,5.3,3.1,8.8c-0.7,1.8-2.4,2.6-3.6,4c-2.2,2.6-2.1,6.6-3.4,9.8c-1.4,3.7-4.5,6.2-7.6,8.2c-8.5,5.5-18.7,8-28.8,7   c-2.1-0.2-4.6-0.3-6.1,1c4.1,0.5,8.2,0.8,12.3,0.9c18.8,0.3,37.5-3.9,55.9-8c2.5-0.6,5.4-1.4,6.5-4   C384.7,108.6,384.9,106.3,384.3,104.2z" />
        <path class="st4"
            d="M411.8,147.4c2.3-4.3,3.1-9.2,2.3-13.9c-0.6,2.8-1.6,5.4-2.9,7.9c-0.7,1.6-1.9,3-3.3,3.9   c-1.8,0.9-3.9,0.4-5.8,0.7c-2.2,0.3-4.3,1.5-6.5,2s-4.9,0.1-6.1-2c-1.2-2.1-0.5-4.9-0.6-7.4c-0.1-3.2-1.8-6.2-1.8-9.5   c0.1-4,2.4-7.5,6-9.2c3.3-1.5,6.9-1.3,10.3-0.6c-8.6-3.5-20.2-0.8-23.2,9.6c-1.1,4.1-0.9,8.5,0.5,12.5c2,6.1,6.1,11.4,11.6,13.5   C399.2,157.8,407.8,154.5,411.8,147.4z" />
        <path
            d="M333.3,38c0.8-2.9,3.7-0.3,4.7,0.9c1.1,1.4,2.2,2.8,3.2,4.3c1.9,2.6,3.8,5.2,5.8,7.7c2.1,2.6,4.5,4.9,7.1,7   c2.6,2,5,4.3,7.3,6.8c4.1,4.9,6.8,10.9,9.6,16.7c3.1,6.4,6.6,12.6,10.4,18.6c2,3.2,4.4,6.2,6.1,9.5c0.9,1.6,1.4,3.4,1.5,5.2   c-0.1,1.7-0.5,3.3-1,4.9c-0.1,0.4,0.1,0.8,0.5,0.8c0.2,0,0.3,0,0.5-0.1c2.6-1.6,2.8-5.4,2.2-8.2c-0.8-3.5-3.1-6.5-5.1-9.4   c-4.6-6.9-8.7-14-12.3-21.5c-3.2-6.5-6.2-13.2-11.2-18.6c-2.6-2.9-5.8-5.1-8.8-7.6c-2.8-2.4-5.4-5.1-7.6-8   c-2.6-3.2-4.9-6.8-7.8-9.8c-0.8-1.1-2.2-1.7-3.6-1.6c-1.1,0.1-2,1.1-2,2.2c0,0.1,0.1,0.3,0.3,0.3C333.2,38.2,333.3,38.2,333.3,38   L333.3,38z" />
        <path
            d="M396,117.3c-7.6-1.5-14.7,5.5-16.5,12.3c-2.3,8.4,1.3,17.9,7.6,23.5c3.1,2.8,7.1,5,11.5,4.8c4.2-0.2,8.1-2.6,10.9-5.7   c6.1-6.6,8.5-16.3,4.9-24.7c-1.9-4.4-5.4-7.9-9.7-9.8c-4.1-1.7-9.8-2.4-13.2,0.9c-0.1,0.1-0.1,0.3,0,0.4c0.1,0.1,0.1,0.1,0.2,0.1   c3.7-0.1,7.2-0.8,10.8,0.4c3.6,1.2,6.6,3.6,8.6,6.8c4.2,6.8,3.2,15.4-1.3,21.8c-2,3.1-5,5.6-8.5,6.9c-3.8,1.2-7.7,0.1-10.9-2.1   c-6.2-4.5-9.7-11.9-9.2-19.6c0.4-3.9,2.1-7.5,4.9-10.3c2.8-2.7,6.3-4.4,10.1-4.9c0.2-0.1,0.3-0.3,0.3-0.5   C396.2,117.5,396.1,117.4,396,117.3L396,117.3z" />
        <path
            d="M410.5,122.9c0.5-4.5,0.6-9,0.7-13.6c0.2-4.5,0.2-9-0.1-13.4c-0.8-8.2-3.4-16-6.9-23.5c-3.7-7.7-7.9-15.1-12.5-22.2   c-4.6-7.4-9.9-14.4-15.7-20.8c-5.5-6.2-11.4-12.1-17.6-17.7c-5.6-4.9-12.1-8.9-19.6-9.4c-15-1-28.2,9.5-36.1,21.3   c-5,7.4-8.6,15.8-12.6,23.8c-4.5,9-9.5,17.7-15,26.1c-0.8,1.2,1.1,2.3,1.9,1.1c4.7-7.2,9.1-14.7,13-22.3   c3.6-6.9,6.8-13.9,10.8-20.6c7.3-12.3,17.9-24.7,33.1-26.4c7.3-0.8,14.2,1.6,20,6c6.3,4.7,11.7,10.6,17.2,16.2   c6,5.9,11.3,12.4,16,19.4c4.5,6.8,8.7,13.9,12.6,21.1c4.2,7.9,7.8,16.3,9.1,25.2c1.4,9.8-0.1,19.7,0.5,29.6c0,0.3,0.3,0.6,0.6,0.6   C410.3,123.4,410.5,123.2,410.5,122.9z" />
        <path
            d="M370.5,77.5c-2,0.4-4,0.9-6,1.6c-2.3,0.7-4.6,1.2-6.9,1.8c-4.5,1-9,1.6-13.6,1.9c-9.1,0.7-18.2,2.5-27.3,2.8   c-8.8,0.3-17.7-0.5-26.1-3.4c-3.8-1.3-7.3-3.2-10.6-5.4c-1.7-1.2-3.2-2.4-4.7-3.8c-1.2-1.1-2.5-2.3-4.3-2.2   c-3.6,0.3-4.4,5.1-4.8,7.9c-0.4,2.4-0.5,4.8-0.4,7.1c0.3,2.4,0.8,4.8,1.6,7.2c0,0.1,0.2,0.1,0.1,0c-0.3-4.3-0.2-8.6,0.3-12.8   c0.1-2,0.6-3.9,1.3-5.7c0.3-0.7,0.8-1.4,1.6-1.6c1.2-0.3,2.2,0.8,3,1.6c5.3,4.9,11.8,8.5,18.7,10.6c8.1,2.3,16.6,3.2,25,2.6   c8.7-0.4,17.2-2.2,25.8-2.6c4.8-0.2,9.6-0.6,14.3-1.3c2.3-0.4,4.7-0.9,6.9-1.6c2.2-0.5,4.3-1.4,6.3-2.6   C371.6,78.8,371.5,77.4,370.5,77.5L370.5,77.5z" />
        <path
            d="M266.1,79.1c-0.7,7.3-6.4,14.4-4.2,21.9c2.2,7.6,10.1,10.9,16.9,13.4c0.1,0,0.1-0.1,0.1-0.1c-6.5-3.2-14.7-7.3-15.4-15.5   c-0.6-6.8,4.2-12.9,2.9-19.7C266.3,78.9,266.1,79,266.1,79.1L266.1,79.1z" />
        <path
            d="M383.8,103.6c2.3,10.1-10.9,11.6-17.7,13c-9.5,1.9-19.1,3.3-28.8,4.1c-17.9,1.3-36.2,0.2-53.1-5.9c-4.6-1.6-9-3.5-13.1-5.9   c-3.7-2-6.7-5.1-8.6-8.9c0-0.1-0.1,0-0.1,0c0,1.7,0.5,3.3,1.3,4.8c1.1,1.6,2.4,3,4,4.2c3.4,2.5,7.1,4.5,11,6   c9,3.7,18.5,6.2,28.1,7.4c20.3,2.8,41,0.3,60.9-3.5c4.8-0.9,10.1-1.7,14-5c2.8-2.4,4.9-7.2,2.8-10.6c-0.1-0.2-0.4-0.2-0.6-0.1   C383.9,103.3,383.8,103.4,383.8,103.6L383.8,103.6z" />
        <path
            d="M389.8,98.4c1.7,3.2,1.4,6.7,1.1,10.2c-0.1,1.7-0.3,3.5-0.7,5.2c-0.4,1.5-1.1,3-1.1,4.6c0,0.2,0.2,0.4,0.4,0.4   c0.1,0,0.1,0,0.2,0c1.6-0.8,2.1-2.8,2.4-4.4c0.3-1.9,0.4-3.8,0.3-5.6C392.2,105.1,391.8,101.4,389.8,98.4   C389.8,98.4,389.8,98.4,389.8,98.4C389.8,98.4,389.8,98.4,389.8,98.4L389.8,98.4z" />
    </g>
</svg>